HIERARCHY
ROOT root
{
	OFFSET 0.000000 0.000000 0.000000
	CHANNELS 6 Xposition Yposition Zposition Zrotation Yrotation Xrotation
	JOINT lhip
	{
		OFFSET 0.058581 -0.082280 -0.017664
		CHANNELS 3 Zrotation Yrotation Xrotation
		JOINT lknee
		{
			OFFSET 0.043451 -0.386469 0.008037
			CHANNELS 3 Zrotation Yrotation Xrotation
			JOINT lankle
			{
				OFFSET -0.014790 -0.426874 -0.037428
				CHANNELS 3 Zrotation Yrotation Xrotation
				JOINT ltoe
				{
					OFFSET 0.041054 -0.060286 0.122042
					CHANNELS 3 Zrotation Yrotation Xrotation
					End Site
					{
						OFFSET 0.000000 0.000000 0.000000
					}
				}
			}
		}
	}
	JOINT rhip
	{
		OFFSET -0.060310 -0.090513 -0.013543
		CHANNELS 3 Zrotation Yrotation Xrotation
		JOINT rknee
		{
			OFFSET -0.043257 -0.383688 -0.004843
			CHANNELS 3 Zrotation Yrotation Xrotation
			JOINT rankle
			{
				OFFSET 0.019056 -0.420046 -0.034562
				CHANNELS 3 Zrotation Yrotation Xrotation
				JOINT rtoe
				{
					OFFSET -0.034840 -0.062106 0.130323
					CHANNELS 3 Zrotation Yrotation Xrotation
					End Site
					{
						OFFSET 0.000000 0.000000 0.000000
					}
				}
			}
		}
	}
	JOINT lowerback
	{
		OFFSET 0.004439 0.124404 -0.038385
		CHANNELS 3 Zrotation Yrotation Xrotation
		JOINT upperback
		{
			OFFSET 0.004488 0.137956 0.026820
			CHANNELS 3 Zrotation Yrotation Xrotation
			JOINT chest
			{
				OFFSET -0.002265 0.056032 0.002855
				CHANNELS 3 Zrotation Yrotation Xrotation
				JOINT lowerneck
				{
					OFFSET -0.013390 0.211636 -0.033468
					CHANNELS 3 Zrotation Yrotation Xrotation
					JOINT upperneck
					{
						OFFSET 0.010113 0.088937 0.050410
						CHANNELS 3 Zrotation Yrotation Xrotation
						End Site
						{
							OFFSET 0.000000 0.000000 0.000000
						}
					}
				}
				JOINT lclavicle
				{
					OFFSET 0.071702 0.114000 -0.018898
					CHANNELS 3 Zrotation Yrotation Xrotation
					JOINT lshoulder
					{
						OFFSET 0.122921 0.045205 -0.019046
						CHANNELS 3 Zrotation Yrotation Xrotation
						JOINT lelbow
						{
							OFFSET 0.255332 -0.015649 -0.022946
							CHANNELS 3 Zrotation Yrotation Xrotation
							JOINT lwrist
							{
								OFFSET 0.265709 0.012698 -0.007375
								CHANNELS 3 Zrotation Yrotation Xrotation
								End Site
								{
									OFFSET 0.000000 0.000000 0.000000
								}
							}
						}
					}
				}
				JOINT rclavicle
				{
					OFFSET -0.082954 0.112472 -0.023707
					CHANNELS 3 Zrotation Yrotation Xrotation
					JOINT rshoulder
					{
						OFFSET -0.113228 0.046853 -0.008472
						CHANNELS 3 Zrotation Yrotation Xrotation
						JOINT relbow
						{
							OFFSET -0.260127 -0.014369 -0.031269
							CHANNELS 3 Zrotation Yrotation Xrotation
							JOINT rwrist
							{
								OFFSET -0.269108 0.006794 -0.006027
								CHANNELS 3 Zrotation Yrotation Xrotation
								End Site
								{
									OFFSET 0.000000 0.000000 0.000000
								}
							}
						}
					}
				}
			}
		}
	}
}
MOTION
Frames: 11
Frame Time: 0.033333
-1.652811 0.211810 0.906102 90.527018 1.101011 85.366392 27.983080 10.907777 4.008627 -5.195995 1.076792 8.361843 -5.565792 6.441246 -11.246148 0.000000 -0.000000 0.000000 -25.912533 -10.913076 -3.931036 1.196153 -1.542068 16.029124 11.420130 -1.124667 -3.851065 0.000000 -0.000000 0.000000 -0.048199 0.775937 5.274807 1.012582 -2.140212 5.686246 0.217092 -1.314268 -1.952881 1.291543 -1.474282 -0.566402 -0.011160 -7.016346 10.897494 -26.174911 7.400377 1.656166 -53.719242 -4.673458 0.358998 2.488695 -31.431099 16.352245 -0.647919 -0.549411 2.117486 28.981606 -2.521989 1.962831 53.820523 4.436020 6.670476 -12.487578 24.434438 -0.098020 -22.616119 3.851926 24.012698 
-1.652419 0.212040 0.906748 90.554367 1.080763 85.315164 27.924016 11.277052 4.050718 -5.050580 0.781099 8.401531 -4.894853 6.286251 -10.928321 0.000000 -0.000000 0.000000 -25.893108 -11.054497 -3.869440 1.159998 -1.393394 16.073659 10.928336 -1.070184 -3.824520 0.000000 -0.000000 0.000000 0.090892 0.904111 5.441102 0.871697 -2.121379 5.267774 0.079501 -1.473290 -2.249706 1.486229 -1.134307 -0.489264 -0.351293 -7.326139 12.998339 -26.285413 7.316944 2.100267 -53.368886 -4.204750 0.698578 2.808934 -31.677817 16.234232 -0.309236 -0.168469 1.071499 29.753435 -2.385983 2.672415 52.980060 4.686912 6.501731 -11.485447 25.744982 -2.459380 -25.860286 2.022175 19.143941 
-1.652182 0.213272 0.906794 90.666424 1.026917 85.335461 27.811123 11.021906 4.128732 -5.037706 0.612194 8.154722 -5.046500 6.809410 -10.719438 0.000000 -0.000000 0.000000 -26.036049 -10.990937 -3.769848 1.314588 -1.235750 16.027537 10.905930 -1.506545 -3.932449 0.000000 -0.000000 0.000000 0.092689 0.902750 5.501779 0.909420 -1.975561 5.044539 -0.001887 -1.686127 -2.626357 1.742742 -0.887352 -0.650777 -1.112871 -7.261337 15.626201 -26.946319 7.268740 2.385272 -52.452862 -3.764035 0.927408 3.023050 -31.759342 15.491838 -0.149296 -0.580349 1.168167 30.605842 -2.064954 2.948598 51.919635 4.395078 6.738228 -11.371157 26.068162 -4.194793 -26.635469 1.747777 18.130473 
-1.652312 0.214097 0.906257 90.761073 0.989808 85.315168 27.798820 10.863857 4.133313 -5.056677 0.552648 8.109904 -5.192743 7.057589 -10.589161 0.000000 -0.000000 0.000000 -26.189356 -10.957697 -3.756171 1.373853 -1.363168 16.200623 10.944715 -1.564823 -3.988758 0.000000 -0.000000 0.000000 0.020558 0.865051 5.709179 0.925557 -1.821466 4.987550 -0.020736 -1.685558 -2.651380 1.922099 -0.649877 -0.614129 -1.111835 -7.169846 15.775577 -27.265244 7.414520 2.249584 -51.913617 -3.679839 1.132523 2.994118 -31.954039 15.296387 -0.035229 -0.594366 0.962395 31.022123 -2.174418 2.758298 51.323298 4.393998 6.915656 -11.211185 26.159239 -4.146078 -26.698032 1.889249 18.564017 
-1.652254 0.214261 0.906058 90.905236 0.996000 85.382774 27.793618 10.801985 3.983230 -5.060888 0.498988 8.147331 -5.238868 7.107027 -10.540627 0.000000 -0.000000 0.000000 -26.218710 -11.009047 -3.744823 1.394797 -1.428064 16.240169 10.924472 -1.630855 -4.005061 0.000000 -0.000000 0.000000 -0.017821 0.886741 5.663898 0.948542 -1.829104 4.988610 -0.017475 -1.688681 -2.632309 1.962855 -0.609893 -0.543534 -0.974476 -7.082385 15.618053 -27.359484 7.495190 2.214410 -51.741968 -3.662613 1.162761 2.944032 -32.062258 15.313229 0.054325 -0.527110 0.891707 31.091722 -2.279398 2.674818 51.178258 4.392078 6.924205 -11.117500 26.260489 -3.966455 -26.704095 1.826677 18.697227 
-1.652119 0.214207 0.905788 91.068565 1.017439 85.448745 27.823716 10.778284 3.822146 -5.077938 0.486748 8.206225 -5.265130 7.034124 -10.519319 0.000000 -0.000000 0.000000 -26.232134 -11.049786 -3.704599 1.389329 -1.588828 16.276063 10.887611 -1.600937 -4.001354 0.000000 -0.000000 0.000000 -0.094466 0.953351 5.557181 0.985841 -1.891198 5.164655 0.002056 -1.590416 -2.644673 2.019158 -0.514932 -0.361741 -0.662914 -7.065830 14.962001 -27.275086 7.439131 2.218408 -51.828076 -3.659098 1.212093 3.061268 -32.165295 15.297436 0.136870 -0.369959 0.689378 31.064060 -2.305924 2.718155 51.155253 4.370540 6.860704 -11.184873 26.459309 -3.683626 -26.564815 1.580817 18.554901 
-1.652039 0.214194 0.905735 91.166628 1.024906 85.499508 27.809595 10.691673 3.746973 -5.092106 0.470616 8.171849 -5.240595 7.080409 -10.489746 0.000000 -0.000000 0.000000 -26.234186 -10.994987 -3.678117 1.404530 -1.654301 16.255035 10.877408 -1.706138 -4.016226 0.000000 -0.000000 0.000000 -0.115797 0.961591 5.552290 0.965400 -1.848309 5.132512 0.007810 -1.553373 -2.668277 2.150154 -0.343531 -0.382334 -0.534688 -6.888104 14.929779 -27.221836 7.412638 2.272643 -51.886305 -3.571239 1.212945 3.199603 -32.237849 15.247469 0.111527 -0.288737 0.516707 31.027668 -2.261566 2.820427 51.175466 4.340652 6.889596 -11.338501 26.434240 -3.681615 -26.410112 1.446294 18.424158 
-1.651832 0.214492 0.905845 91.280977 1.017542 85.542978 27.765590 10.571404 3.710707 -5.094243 0.421813 8.085429 -5.272414 7.185629 -10.432220 0.000000 -0.000000 0.000000 -26.260330 -10.998823 -3.626448 1.438816 -1.612401 16.217750 10.894849 -1.888303 -4.040189 0.000000 -0.000000 0.000000 -0.120772 0.996124 5.566780 0.951036 -1.773171 5.047224 0.016167 -1.613573 -2.717526 2.272534 -0.223917 -0.619949 -0.577412 -6.722188 15.393941 -27.387874 7.482861 2.252994 -51.660526 -3.457832 1.211378 3.204491 -32.252402 15.167383 -0.007619 -0.421163 0.577331 31.133928 -2.231223 2.845171 50.958844 4.206305 6.962629 -11.392562 26.288166 -3.849696 -26.227685 1.383480 18.567363 
-1.651657 0.214627 0.905779 91.338923 1.024702 85.588462 27.757563 10.531015 3.663972 -5.097965 0.387425 8.054872 -5.287255 7.233813 -10.402520 0.000000 -0.000000 0.000000 -26.252916 -11.005648 -3.655366 1.422617 -1.634258 16.263418 10.891453 -1.922642 -4.067739 0.000000 -0.000000 0.000000 -0.143075 1.042061 5.561842 0.944767 -1.690149 5.058545 0.031049 -1.595201 -2.704722 2.409992 -0.141213 -0.893885 -0.480317 -6.757869 15.173742 -27.388734 7.542515 2.186589 -51.631002 -3.435223 1.215849 3.212811 -32.240321 15.192168 -0.094015 -0.340521 0.704879 31.104579 -2.284852 2.786795 50.861473 4.154654 6.940933 -11.346095 26.173859 -3.761799 -26.040513 1.148050 18.588383 
-1.651285 0.214583 0.905630 91.383126 1.071927 85.671736 27.827661 10.595600 3.608202 -5.125140 0.355005 8.018092 -5.304429 7.213058 -10.353352 0.000000 -0.000000 0.000000 -26.184191 -11.064110 -3.709985 1.390770 -1.639223 16.310882 10.859281 -1.926376 -4.063849 0.000000 -0.000000 0.000000 -0.159339 1.061505 5.568683 0.936796 -1.634792 5.048343 0.030375 -1.506241 -2.656299 2.507215 -0.096536 -1.112583 -0.190439 -6.787954 14.605467 -27.309597 7.639696 2.067828 -51.663986 -3.372005 1.203671 3.257227 -32.256593 15.382642 -0.404676 0.189967 0.698525 30.986951 -2.393438 2.784569 50.846068 4.080540 6.867765 -11.290748 26.232378 -3.490463 -25.276045 0.506185 18.093723 
-1.650995 0.214509 0.905622 91.415615 1.105129 85.721246 27.858389 10.605294 3.586850 -5.130274 0.322856 7.972332 -5.305827 7.215320 -10.307115 0.000000 -0.000000 0.000000 -26.151215 -11.075398 -3.717651 1.394487 -1.681132 16.309237 10.834694 -1.934969 -4.062257 0.000000 -0.000000 0.000000 -0.147671 1.065781 5.523383 0.915762 -1.602795 5.179008 0.027051 -1.479894 -2.691316 2.554734 -0.067063 -1.346121 -0.025682 -6.734372 14.246924 -27.254954 7.671360 2.015689 -51.707817 -3.315744 1.120376 3.427068 -32.213145 15.584162 -1.391980 0.565093 0.512519 30.844263 -2.406005 2.825956 50.894214 3.964910 6.862562 -11.307904 26.357350 -3.064499 -23.889482 -0.055801 17.113764 
